<svg width="364" height="118" viewBox="0 0 364 118" fill="none" xmlns="http://www.w3.org/2000/svg">
<g filter="url(#filter0_d_78_329)">
<path fill-rule="evenodd" clip-rule="evenodd" d="M189.933 60.8072C188.884 61.5647 188.225 61.3142 187.676 60.3307C186.76 58.6935 186.083 57.1175 186.974 55.1077C189.366 49.7136 192.338 44.7227 196.554 40.5565C197.164 39.9456 197.683 39.3347 198.299 38.7605C198.786 38.3833 199.297 38.0404 199.831 37.7342C200.154 38.113 200.582 38.394 200.643 38.7422C200.663 39.2002 200.562 39.6556 200.35 40.0617C198.244 45.1259 196.176 50.2084 193.967 55.2237C193.039 57.3313 191.917 59.3716 189.933 60.8072ZM328.263 60.8072C327.213 61.5647 326.554 61.3142 326.005 60.3307C325.089 58.6935 324.412 57.1175 325.303 55.1077C327.695 49.7136 330.667 44.7227 334.883 40.5565C335.494 39.9456 336.012 39.3347 336.629 38.7605C337.115 38.3833 337.626 38.0404 338.16 37.7342C338.484 38.113 338.911 38.394 338.972 38.7422C338.992 39.2002 338.891 39.6556 338.679 40.0617C336.568 45.1198 334.505 50.2023 332.296 55.2176C331.368 57.3313 330.246 59.3716 328.263 60.8072ZM282.448 19.8782C282.848 20.5885 283.393 21.2059 284.049 21.69C284.704 22.1741 285.455 22.5139 286.251 22.687C287.047 22.8601 287.87 22.8626 288.667 22.6943C289.464 22.5261 290.216 22.1909 290.875 21.7109C293.602 19.5652 295.735 16.7553 297.068 13.5495C298.124 11.1854 297.727 9.55434 295.683 7.82555C293.705 6.10049 291.206 5.08952 288.586 4.95441C287.207 4.82002 286.146 5.28429 285.603 6.56713C284.138 10.1897 282.551 13.7877 282.124 17.7279C282.029 18.4595 282.144 19.203 282.454 19.8721L282.448 19.8782ZM240.343 74.2099C237.701 76.3113 234.4 75.7371 232.191 72.866C231.281 71.6808 230.812 70.4713 231.519 69.1152C233.258 65.7736 234.802 62.3038 236.712 59.0723C239.507 54.3441 242.338 49.6097 245.566 45.1931C247.537 42.4869 250.216 40.306 252.7 38.0214C253.31 37.4838 254.579 37.0684 255.22 37.4105C255.861 37.7526 256.068 39.0171 256.526 40.0006C256.111 42.9817 255.916 46.0178 255.238 48.9256C254.55 52.3075 253.574 55.6244 252.322 58.8401C251.211 61.528 249.393 63.8677 247.94 66.3967C246.061 69.6039 243.205 71.9191 240.343 74.2038V74.2099ZM76.7694 76.0425C75.549 76.7267 74.9388 76.4579 74.2798 75.114C74.1222 74.8593 74.001 74.5837 73.9197 74.2954C73.8282 73.7212 73.8099 73.1409 73.7611 72.5605L73.5109 72.5178C73.6273 71.1878 73.8106 69.8646 74.0601 68.5531C75.1585 63.9777 77.2393 59.9336 79.6618 56.0118C82.1616 51.773 85.0941 47.8054 88.4123 44.1729C90.963 41.485 93.6601 38.956 96.9004 37.0989C98.5174 36.1704 100.507 36.6896 101.684 38.3696C102.038 38.7654 102.237 39.2755 102.244 39.8063C102.252 40.3371 102.069 40.8529 101.727 41.259C98.3344 46.0361 95.0148 50.8682 91.7319 55.7247C88.4489 60.5812 85.3857 65.3399 82.1393 70.0926C81.0036 71.676 79.7813 73.1953 78.478 74.6436C77.9966 75.2127 77.4207 75.6942 76.7755 76.067L76.7694 76.0425ZM133.519 61.1554C134.203 66.3601 132.299 70.6607 128.448 74.0694C127.008 75.3461 124.958 75.2117 123.109 75.4072C122.641 75.4313 122.173 75.4313 121.706 75.4072L121.657 75.7066C120.107 75.4194 118.526 75.2423 117.019 74.8086C115.109 74.2588 114.731 72.9454 116.085 71.4304C117.165 70.2673 118.345 69.2022 119.612 68.2477C123.207 65.4377 126.837 62.6826 130.474 59.9275C132.146 58.6996 133.269 59.1028 133.538 61.1798L133.519 61.1554ZM100.812 10.8189C102.545 10.8189 103.631 11.4297 104.357 12.9997C105.224 14.6955 105.602 16.599 105.449 18.4976C105.272 20.1959 104.638 20.9839 102.911 21.3382C100.77 21.8431 98.5964 22.1983 96.4061 22.4011C92.6104 22.6127 88.8281 23.0205 85.0744 23.6229C80.3331 24.4171 75.5917 25.1868 70.8565 25.9809C69.9717 26.1275 69.0991 26.3719 68.2143 26.5551C64.9679 27.221 64.9618 27.2149 63.3936 29.8966C62.9817 30.5826 62.6069 31.2902 62.2708 32.0164C60.3852 36.207 58.6461 40.471 56.608 44.5883C54.698 48.4491 53.1237 52.432 51.5982 56.4394C50.3777 59.6099 49.2671 62.8231 48.1444 66.0302C47.3572 68.2905 46.6493 70.5813 45.8805 72.8476C44.9179 75.3656 44.2643 77.9912 43.9339 80.6669C43.8241 81.9497 43.403 83.2082 43.1711 84.4849C42.5017 87.6332 42.7129 90.9054 43.7813 93.9413C43.8598 94.1244 43.9271 94.3121 43.9827 94.5033C44.3 95.7862 43.6654 96.8491 42.4023 96.8369C40.712 96.8369 38.9485 96.7147 37.49 95.8228C35.8987 94.7902 34.3816 93.6471 32.9501 92.4019C32.3994 91.9641 31.9555 91.4066 31.652 90.7715C31.3486 90.1365 31.1936 89.4406 31.1988 88.7366C31.1988 87.24 31.0645 85.7433 30.9852 84.2467C31.1365 80.2425 31.7989 76.2742 32.9562 72.4383C34.8417 65.7187 37.3375 59.1639 39.7417 52.6031C41.8042 46.983 43.8485 41.3445 46.393 35.9077C46.9422 34.7348 47.4975 33.5619 48.0162 32.3768C48.0398 32.2827 48.0406 32.1844 48.0187 32.0899C47.9967 31.9954 47.9526 31.9075 47.89 31.8335C47.8274 31.7595 47.7481 31.7014 47.6586 31.6642C47.5691 31.6269 47.4721 31.6116 47.3755 31.6193C45.734 32.0531 44.0742 32.4257 42.4938 32.9694C38.1308 34.4599 33.7311 35.8649 29.4718 37.5998C24.639 39.5608 19.8976 41.7294 15.5956 44.7838C13.9241 45.896 12.4975 47.3388 11.4035 49.0233C10.659 50.2451 9.98165 51.4668 10.0915 52.9329C10.1043 53.2324 10.0777 53.5323 10.0122 53.8248C9.98079 54.0498 9.89113 54.2626 9.75212 54.4421C9.61311 54.6216 9.42958 54.7616 9.21978 54.848C9.00999 54.9345 8.78123 54.9645 8.55626 54.935C8.33129 54.9056 8.11795 54.8177 7.93744 54.6801C6.01527 53.0062 4.3738 51.1369 4.16023 48.4491C4.16023 48.3513 4.16023 48.2475 4.12971 48.1497C3.61103 44.0019 4.61178 40.5076 7.78489 37.5388C9.77492 35.7128 11.9896 34.1485 14.3752 32.8839C19.1744 30.3967 24.1202 28.2037 29.185 26.3169C37.3985 23.0731 45.8622 20.6907 54.3624 18.4121C58.9085 17.1903 63.5522 16.3718 68.141 15.3149C73.0227 14.1991 77.9349 13.2726 82.8777 12.5354C84.9524 12.23 87.0393 11.9246 89.1263 11.7413C93.0194 11.3564 96.882 10.7944 100.812 10.8189ZM160.906 24.9241C156.884 24.9241 152.936 25.6022 148.97 26.0786C149.093 26.2136 149.201 26.361 149.293 26.5185C149.426 26.6862 149.515 26.8842 149.552 27.0948C149.59 27.3054 149.575 27.522 149.508 27.7253C149.442 27.9286 149.326 28.1122 149.171 28.2598C149.017 28.4074 148.828 28.5143 148.622 28.571C148.45 28.6454 148.27 28.6988 148.085 28.7299C144.424 29.2491 141.751 31.6254 139.255 33.8857C135.594 37.1661 133.373 41.3506 134.477 46.5859C135.057 49.3165 135.948 49.7441 138.309 48.3391C140.787 46.8669 143.154 45.2053 145.632 43.7758C149.678 41.4667 153.79 39.2798 157.879 37.0562C158.776 36.5675 159.673 36.0726 160.588 35.6145L160.179 35.8222C161.198 33.2321 162.242 30.6541 163.23 28.0518C164.164 25.6632 163.499 24.9302 160.906 24.9241ZM308.724 9.85978C309.602 7.24521 310.06 6.80538 312.702 7.54454C314.752 8.10044 316.876 8.50362 318.493 10.1591C320.11 11.8146 321.044 13.7144 320.379 16.1885C319.842 18.1861 320.379 18.7542 322.343 18.8031C323.649 18.8397 324.961 18.8031 326.267 18.8031V18.3693C329.16 18.3693 332.052 18.3021 334.938 18.4121C335.848 18.4223 336.725 18.7532 337.416 19.3467C339.13 21.1794 338.227 23.4152 335.646 23.7817C333.815 24.0444 331.924 24.0688 330.057 24.1788C326.896 24.3621 323.735 24.5698 320.568 24.6981C318.505 24.7836 317.102 25.5533 316.26 27.5753C312.543 36.5064 308.132 45.1442 305.642 54.5701C304.672 58.2354 303.085 61.7357 301.92 65.3582C300.557 69.6059 299.279 73.882 298.087 78.1867C296.745 83.031 295.525 87.9119 294.292 92.7868C293.81 94.6805 293.364 96.5864 293.072 98.5168C292.962 99.1766 293.297 99.9096 293.425 100.606C294.036 100.288 294.829 100.117 295.256 99.6286C296.488 98.2304 297.608 96.7373 298.606 95.1631C301.747 89.9991 304.83 84.7985 307.857 79.5612C309.84 76.1403 311.768 72.6949 313.709 69.2495C312.446 65.7003 312.312 61.7479 313.148 57.5145C314.685 49.7136 317.877 42.5419 323.338 36.6652C325.98 33.8185 329.19 31.4788 332.229 29.017C333.712 27.7952 335.5 27.8502 337.294 28.4061C338.996 28.907 340.747 29.243 342.407 29.8478C344.067 30.4525 345.806 31.0695 347.149 32.108C349.589 34.0384 349.949 36.7446 349.248 39.7074C347.881 45.468 345.471 50.8193 342.95 56.1217C341.878 58.5003 340.655 60.808 339.289 63.0308C338.184 64.6403 336.88 66.1037 335.408 67.3864C334.261 68.4432 332.882 68.6081 331.246 67.9972C329.204 67.3239 327.349 66.1769 325.834 64.6496C325.169 63.9471 324.363 63.1041 323.46 63.7028C322.776 64.2899 322.34 65.1152 322.24 66.0119C321.947 67.7536 321.89 69.5267 322.069 71.2838C322.539 74.5764 324.418 77.4353 328.665 76.7267C332.169 76.1106 335.427 74.5136 338.063 72.1207C342.596 68.1988 346.441 63.6356 350.224 59.0112C352.702 55.9568 355.319 53.0734 357.919 50.1473C358.32 49.8286 358.772 49.5788 359.255 49.4082C359.432 49.9824 359.865 50.6299 359.743 51.1186C358.523 55.1138 357.345 59.1273 354.819 62.5665C352.067 66.3173 349.467 70.1842 346.581 73.8311C344.828 76.005 342.872 78.0074 340.741 79.8117C338.301 81.9253 335.249 82.414 332.143 82.2552C327.695 82.4995 323.985 80.6913 320.653 78.2539C318.543 76.7509 316.739 74.8578 315.338 72.6766C315.116 73.5196 314.847 74.3496 314.533 75.1629C312.202 81.1434 309.608 87.0384 306.881 92.8784C305.166 96.3866 303.262 99.7984 301.175 103.098C299.345 106.092 296.904 108.462 293.389 109.549C292.379 109.918 291.301 110.06 290.231 109.965C289.16 109.87 288.124 109.541 287.195 109C281.746 105.835 279.409 100.991 280.709 94.5217C281.868 88.7672 283.149 83.031 284.626 77.3498C283.919 78.1437 283.163 78.8925 282.362 79.5918C279.031 82.5118 274.246 82.4446 270.628 79.8361C268.047 78.0035 265.746 75.7371 264.569 72.6583C264.195 71.5226 263.879 70.3686 263.623 69.2007C263.952 64.9856 265.173 61.0576 266.393 57.1541C268.004 52.2121 269.584 47.2518 271.348 42.3586C272.391 39.4752 273.789 36.7141 275.009 33.8979C275.619 32.4501 276.315 31.0268 276.901 29.5607C277.658 27.673 278.365 27.1171 280.312 27.6853C282.112 28.1489 283.838 28.8646 285.438 29.8111C288.147 31.5277 288.617 33.9712 287.451 36.9034C284.846 43.4704 281.96 49.9335 279.519 56.5616C277.725 61.4486 276.468 66.5372 274.985 71.5403C274.91 71.7136 274.877 71.9018 274.887 72.0901C275.046 72.8598 275.241 73.6173 275.418 74.387C276.028 74.1183 276.84 74.0022 277.298 73.5501C280.764 70.172 284.48 67.0259 287.214 62.9636C287.368 62.7304 287.544 62.5116 287.738 62.3099C288.318 61.6991 288.776 61.6258 289.117 62.0534C291.473 55.0221 293.999 48.0398 296.501 41.0635C298.087 36.6896 299.9 32.4013 301.547 28.0518C302.451 25.6755 301.785 24.9424 299.192 24.9363C293.7 24.9363 288.281 26.2191 282.796 26.4879C281.307 26.5612 279.812 26.549 278.329 26.4879C277.511 26.4452 276.425 26.3535 276.443 25.2662C276.443 24.3071 277.487 24.4109 278.207 24.301C283.644 23.5007 289.081 22.6822 294.524 21.9124C296.743 21.5127 298.985 21.2556 301.236 21.1427C302.176 21.177 303.103 20.9107 303.882 20.3824C304.661 19.8541 305.252 19.0913 305.569 18.2044C306.74 15.4615 307.778 12.682 308.724 9.85978ZM236.236 3.54939C237.005 1.46018 237.853 1.057 240.154 1.67398C242.454 2.29097 244.218 3.84261 245.707 5.60194C246.283 6.20613 246.672 6.96431 246.826 7.78491C246.981 8.60551 246.895 9.45344 246.579 10.2263C245.524 12.7798 244.425 15.3394 243.425 17.9051C242.851 19.3712 242.522 20.9595 241.869 22.3767C239.58 27.3981 237.054 32.2974 234.906 37.3921C232.758 42.4869 231.001 47.6183 229.133 52.7558C228.572 54.2891 228.169 55.8957 227.693 57.4718L228.255 57.6184C231.648 52.2915 234.967 46.928 238.451 41.6561C241.045 37.7159 244.554 34.6493 248.41 31.9431C249.254 31.3894 250.205 31.021 251.201 30.862C252.197 30.703 253.215 30.7571 254.189 31.0207C256.207 31.4711 258.171 32.1367 260.047 33.006C264.562 35.1197 265.661 39.2859 266.527 43.4399C267.235 46.8241 266.411 50.0862 265.917 53.3361C264.87 59.7663 262.56 65.9248 259.119 71.4548C258.575 72.4102 257.897 73.2824 257.106 74.045C254.805 76.1342 252.517 78.2478 250.021 80.1049C246.799 82.5117 242.918 82.2246 239.037 81.0029C236.242 80.1232 233.344 79.4818 230.995 77.2826C230.067 76.4152 229.011 76.4396 228.005 77.5148C226.375 79.2619 224.404 80.844 221.573 79.7261C219.609 78.9395 217.87 77.6807 216.508 76.0609C213.945 73.0859 213.347 69.9521 213.457 66.7266C211.755 69.1213 210.046 71.5098 208.228 73.8128C206.474 75.9867 204.519 77.9891 202.388 79.7933C199.947 81.907 196.896 82.3957 193.79 82.2368C189.341 82.4812 185.631 80.673 182.3 78.2356C180.189 76.7326 178.385 74.8395 176.985 72.6583C176.762 73.5013 176.493 74.3313 176.179 75.1445C173.848 81.1251 171.255 87.02 168.527 92.8601C166.808 96.377 164.897 99.797 162.803 103.105C160.973 106.098 158.532 108.468 155.017 109.555C154.008 109.924 152.929 110.066 151.859 109.971C150.789 109.876 149.752 109.547 148.823 109.006C143.374 105.841 141.037 100.997 142.337 94.5278C144.37 84.0135 147.043 73.6336 150.343 63.4462C152.839 55.9446 155.505 48.4979 158.196 41.0635C158.412 40.4649 158.634 39.8662 158.861 39.2675L158.611 39.4508L157.903 39.9273C155.969 41.1979 153.9 42.1814 152.131 43.7881C150.361 45.3947 148.109 46.4148 146.084 47.7221C144.442 48.7789 142.788 49.8236 141.202 50.972C138.645 52.8046 138.419 53.8065 139.719 56.6043C140.189 57.6184 140.732 58.5958 141.202 59.6099C144.54 66.7938 142.831 73.2447 138.151 79.158C136.161 81.6687 133.202 82.3529 130.126 82.4934H129.474H128.162C123.28 82.0597 118.642 80.8196 114.773 77.6064L114.816 77.643L114.639 77.9302C112.198 81.6993 107.829 82.5056 103.765 80.1354L103.485 79.9644C99.1337 77.2582 96.4976 73.3547 96.0888 68.1561C96.0227 67.2786 95.8839 66.4082 95.6738 65.5537C95.5701 65.1444 95.1979 64.4908 94.9599 64.4847C94.7367 64.5035 94.5205 64.5713 94.3264 64.6832C94.1324 64.7951 93.9653 64.9484 93.8371 65.1322C91.0728 69.0846 88.4916 73.1836 85.5626 76.9955C83.8784 79.1886 81.6816 80.954 78.4841 80.6974C76.0433 80.5019 73.5475 80.8074 71.3019 79.1214C67.421 76.2136 65.0534 72.5116 64.7788 66.861C64.4864 62.3403 65.6476 57.8447 68.0922 54.0325C70.6368 50.0129 72.8153 45.7123 75.61 41.9004C77.8373 38.846 80.7419 36.3536 83.3658 33.6352C84.1227 32.7091 84.9989 31.8874 85.9715 31.1917C87.5248 30.3202 89.2953 29.9131 91.0728 30.0188C95.9621 30.1323 100.664 31.9221 104.394 35.0891C106.176 36.5552 106.645 36.4331 107.536 34.4782C107.732 34.0506 107.927 33.623 108.116 33.1893C109.379 30.2998 109.715 30.1349 112.803 30.5686C116.513 31.1184 119.771 35.2968 118.905 38.9193C118.172 41.9432 116.793 44.7594 115.695 47.661C114.34 51.2713 113.016 54.8939 111.613 58.4858C110.758 60.685 109.666 62.762 108.885 65.0039C108.139 67.1499 107.548 69.3465 107.115 71.577C106.975 72.2856 107.53 73.1897 107.768 74.0205C108.519 73.8067 109.446 73.8006 109.989 73.3363L110.148 73.2019C109.617 72.2367 109.745 71.2838 110.618 70.117C111.782 68.5454 113.141 67.1289 114.664 65.9019C118.673 62.7131 122.804 59.6771 126.868 56.586C127.387 56.1889 127.948 55.8468 128.454 55.4314C130.035 54.1303 130.285 53.1101 129.388 51.2713C128.491 49.4326 127.686 47.7466 126.728 46.0422C125.514 43.9883 124.795 41.6795 124.628 39.2991C124.46 36.9186 124.849 34.5318 125.763 32.3279C126.941 29.3652 129.315 27.1233 131.67 24.9974C132.157 24.5603 132.682 24.1678 133.239 23.8245C135.252 22.5722 137.29 21.6986 139.829 22.2423C141.493 22.5753 143.126 23.0473 144.711 23.6535C148.524 23.0914 152.344 22.5233 156.164 21.9796C158.374 21.5914 160.605 21.3445 162.846 21.2405C163.786 21.2747 164.713 21.0084 165.492 20.4802C166.271 19.9519 166.862 19.189 167.179 18.3021C168.344 15.5715 169.388 12.8042 170.333 9.95752C171.212 7.34295 171.67 6.90312 174.312 7.64228C176.362 8.19818 178.486 8.60136 180.103 10.2569C181.72 11.9123 182.654 13.8122 181.988 16.2862C181.451 18.2838 181.988 18.8519 183.953 18.9008C185.259 18.9375 186.571 18.9008 187.877 18.9008V18.4671C190.769 18.4671 193.662 18.3999 196.548 18.5098C197.458 18.52 198.335 18.851 199.026 19.4445C200.74 21.2771 199.837 23.5129 197.256 23.8795C195.425 24.1422 193.534 24.1666 191.666 24.2766C188.505 24.4598 185.345 24.6675 182.178 24.7958C180.115 24.8813 178.712 25.651 177.869 27.673C174.251 36.5186 169.809 45.1564 167.313 54.5579C166.343 58.2232 164.756 61.7235 163.59 65.346C162.228 69.5937 160.95 73.8698 159.758 78.1745C158.416 83.0188 157.195 87.8997 155.963 92.7745C155.481 94.6683 155.029 96.5742 154.742 98.5046C154.633 99.1643 154.968 99.8974 155.096 100.594C155.707 100.276 156.5 100.105 156.927 99.6164C158.159 98.2182 159.279 96.725 160.277 95.1509C163.418 89.9869 166.501 84.7863 169.528 79.549C171.511 76.1281 173.439 72.6827 175.38 69.2373C174.117 65.6881 173.982 61.7357 174.818 57.5023C176.362 49.7014 179.548 42.5296 185.009 36.653C187.651 33.8063 190.861 31.4666 193.9 29.0048C195.383 27.783 197.171 27.838 198.965 28.3939C200.667 28.8948 202.418 29.2308 204.078 29.8356C205.738 30.4403 207.477 31.0573 208.819 32.0958C211.26 34.0262 211.62 36.7324 210.919 39.6952C209.552 45.4558 207.141 50.8071 204.621 56.1095C203.549 58.4881 202.326 60.7958 200.96 63.0186C199.86 64.627 198.562 66.0904 197.097 67.3741C195.95 68.431 194.571 68.5959 192.936 67.985C190.893 67.3117 189.039 66.1647 187.523 64.6374C186.858 63.9349 186.052 63.0919 185.149 63.6905C184.465 64.2777 184.029 65.103 183.929 65.9997C183.636 67.7414 183.579 69.5145 183.758 71.2716C184.228 74.5642 186.107 77.4231 190.354 76.7145C193.859 76.0983 197.117 74.5014 199.752 72.1085C204.286 68.1866 208.13 63.6233 211.913 58.999C213.134 57.484 214.433 55.9934 215.727 54.5151C217.307 48.84 219.214 43.2615 221.439 37.8075C223.273 33.1567 225.212 28.5547 227.254 24.0017C229.024 20.0493 231.074 16.2435 232.844 12.2972C233.753 10.263 234.558 8.16764 235.333 6.06621L236.236 3.54939Z" fill="#FF642F"/>
</g>
<defs>
<filter id="filter0_d_78_329" x="0" y="0" width="368" height="118" filterUnits="userSpaceOnUse" color-interpolation-filters="sRGB">
<feFlood flood-opacity="0" result="BackgroundImageFix"/>
<feColorMatrix in="SourceAlpha" type="matrix" values="0 0 0 0 0 0 0 0 0 0 0 0 0 0 0 0 0 0 127 0" result="hardAlpha"/>
<feOffset dy="4"/>
<feGaussianBlur stdDeviation="2"/>
<feComposite in2="hardAlpha" operator="out"/>
<feColorMatrix type="matrix" values="0 0 0 0 0 0 0 0 0 0 0 0 0 0 0 0 0 0 0.25 0"/>
<feBlend mode="normal" in2="BackgroundImageFix" result="effect1_dropShadow_78_329"/>
<feBlend mode="normal" in="SourceGraphic" in2="effect1_dropShadow_78_329" result="shape"/>
</filter>
</defs>
</svg>
